#!OML:ASF X:\für Bonn\!DataBase\2005_08_12_Daniel\c3d\Daniel.ASF
:FULLY-SPECIFIED
:DEGREES
32
root 1.96749 16.7819 7.17879 1.54683 159.833 -345.959
lowerback 12.7332 -5.27033 6.71323
upperback 3.15506 -5.53076 3.08898
thorax -4.12342 -2.59126 0.377861
lowerneck -5.78195 12.9659 4.26044
upperneck -3.95936 17.543 -14.6953
head 1.4708 8.83183 -4.29147
rclavicle -1.09232e-013 -2.14687e-014
rhumerus -65.512 6.32752 -78.6177
rradius 63.6966
rwrist -3.58861
rhand -26.2593 28.7282
rfingers 7.12502
rthumb 0.295325 -1.25131
lclavicle -1.09232e-013 -2.14687e-014
lhumerus -57.8867 -4.66219 93.9622
lradius 108.608
lwrist 13.2582
lhand -14.3241 -17.1482
lfingers 7.12502
lthumb 11.8166 12.4984
rfemur -21.2498 -0.536796 28.6425
rtibia 42.5833
rfoot -13.4079 5.81609
rtoes -10.6114
lfemur 2.46072 6.73909 -19.2644
ltibia 76.9442
lfoot 1.69408 -0.581517
ltoes -3.55698
33
root 2.06854 16.6472 6.92101 0.925915 160.018 -345.607
lowerback 13.4947 -5.21912 6.98734
upperback 3.42034 -5.31074 3.13158
thorax -4.26902 -2.45883 0.282038
lowerneck -5.62103 12.9246 4.43477
upperneck -4.42885 17.4523 -14.9429
head 1.33817 8.81717 -4.42074
rclavicle 4.35338e-014 5.64548e-014
rhumerus -64.0645 5.68455 -78.7153
rradius 64.9135
rwrist -3.54534
rhand -26.1556 28.5125
rfingers 7.12502
rthumb 0.395474 -1.46683
lclavicle 4.35338e-014 5.64548e-014
lhumerus -58.5659 -3.94877 94.0898
lradius 106.674
lwrist 13.9967
lhand -14.0942 -15.6801
lfingers 7.12502
lthumb 12.0382 13.9537
rfemur -20.1019 -0.811298 29.0912
rtibia 44.2126
rfoot -16.0819 6.10915
rtoes -9.92751
lfemur 1.2115 7.0443 -18.211
ltibia 80.3591
lfoot 1.14478 -1.32754
ltoes -4.49401
34
root 2.16225 16.5227 6.66578 0.314692 160.134 -345.29
lowerback 14.4114 -5.10508 7.28125
upperback 3.57296 -4.98503 3.14018
thorax -4.61349 -2.28296 0.133198
lowerneck -5.38246 12.8569 4.59437
upperneck -4.80092 17.3307 -15.1005
head 1.20862 8.78386 -4.52716
rclavicle 1.22253e-014 -1.82882e-014
rhumerus -62.766 4.9421 -78.9102
rradius 66.2736
rwrist -3.28628
rhand -26.3046 28.4756
rfingers 7.12502
rthumb 0.251525 -1.50399
lclavicle 1.22253e-014 -1.82882e-014
lhumerus -59.4418 -3.45455 94.1861
lradius 104.678
lwrist 14.79
lhand -14.1059 -14.2093
lfingers 7.12502
lthumb 12.027 15.4251
rfemur -18.9074 -1.12475 29.455
rtibia 45.6431
rfoot -18.6077 6.41422
rtoes -10.2807
lfemur -0.127211 7.40133 -17.1644
ltibia 83.6149
lfoot 0.501919 -1.84505
ltoes -5.35543
35
root 2.25151 16.4058 6.41128 -0.216992 160.279 -345.032
lowerback 15.1894 -5.00011 7.59845
upperback 3.71493 -4.68434 3.10519
thorax -4.89586 -2.12223 -0.0870816
lowerneck -5.30771 12.8175 4.61976
upperneck -5.05178 17.2577 -15.1095
head 1.11885 8.76401 -4.55429
rclavicle 1.27322e-013 -5.32743e-014
rhumerus -61.3004 4.05483 -79.1882
rradius 67.5423
rwrist -2.72462
rhand -26.5521 28.7257
rfingers 7.12502
rthumb 0.0125384 -1.25406
lclavicle 1.27322e-013 -5.32743e-014
lhumerus -60.3414 -3.00038 94.1382
lradius 102.577
lwrist 15.3254
lhand -14.3841 -12.9743
lfingers 7.12502
lthumb 11.7587 16.6756
rfemur -17.7204 -1.36394 29.7161
rtibia 46.8204
rfoot -20.8906 6.63739
rtoes -10.7432
lfemur -1.65336 7.71951 -16.1765
ltibia 86.729
lfoot -0.144804 -2.19876
ltoes -6.02753
36
root 2.33664 16.3022 6.1511 -0.665564 160.393 -344.829
lowerback 15.8492 -4.8561 7.94687
upperback 3.83094 -4.34386 3.02682
thorax -5.13979 -1.94655 -0.392808
lowerneck -5.2472 12.7538 4.53295
upperneck -5.29053 17.1547 -15.0109
head 1.01173 8.72907 -4.53723
rclavicle -7.48424e-014 2.8625e-014
rhumerus -59.7748 3.01002 -79.5743
rradius 68.8343
rwrist -1.91422
rhand -26.948 29.21
rfingers 7.12502
rthumb -0.369843 -0.769472
lclavicle -7.48424e-014 2.8625e-014
lhumerus -61.1377 -2.65113 93.9675
lradius 100.334
lwrist 15.5426
lhand -14.8788 -12.23
lfingers 7.12502
lthumb 11.2817 17.4466
rfemur -16.4717 -1.48636 29.8675
rtibia 47.7507
rfoot -22.889 6.77499
rtoes -10.9434
lfemur -3.28207 8.13571 -15.2516
ltibia 89.6142
lfoot -0.776115 -2.5248
ltoes -6.42999
37
root 2.41761 16.2099 5.88361 -0.979268 160.533 -344.718
lowerback 16.329 -4.68584 8.24298
upperback 3.86127 -4.00162 2.96182
thorax -5.36752 -1.77818 -0.670264
lowerneck -5.09413 12.6863 4.35653
upperneck -5.54894 17.0542 -14.9187
head 0.877429 8.70195 -4.51677
rclavicle -5.26779e-015 -6.2816e-014
rhumerus -58.3884 2.11677 -80.0716
rradius 70.4545
rwrist -1.07113
rhand -27.4077 29.7613
rfingers 7.12502
rthumb -0.813871 -0.216879
lclavicle -5.26779e-015 -6.2816e-014
lhumerus -61.9383 -2.28812 93.8149
lradius 98.0593
lwrist 15.4465
lhand -15.5573 -11.7438
lfingers 7.12502
lthumb 10.6272 17.9674
rfemur -15.2211 -1.58877 29.8848
rtibia 48.3631
rfoot -24.6337 6.93901
rtoes -11.2274
lfemur -5.09392 8.61127 -14.4387
ltibia 92.262
lfoot -1.40273 -2.87176
ltoes -5.85935
38
root 2.49355 16.1392 5.61103 -1.16313 160.72 -344.68
lowerback 16.6292 -4.47753 8.60376
upperback 3.81877 -3.63343 2.82847
thorax -5.57787 -1.60832 -1.07446
lowerneck -4.95139 12.5772 4.15173
upperneck -5.68465 16.9033 -14.7275
head 0.764618 8.6415 -4.46235
rclavicle 1.40143e-014 -1.11319e-014
rhumerus -57.2088 1.00723 -80.7313
rradius 72.3694
rwrist -0.229268
rhand -27.6878 30.4239
rfingers 7.12502
rthumb -1.08443 0.446867
lclavicle 1.40143e-014 -1.11319e-014
lhumerus -62.7239 -2.22425 93.587
lradius 95.914
lwrist 15.0815
lhand -16.412 -11.548
lfingers 7.12502
lthumb 9.80267 18.2038
rfemur -13.958 -1.71178 29.8015
rtibia 48.6368
rfoot -26.2344 7.02457
rtoes -11.8564
lfemur -7.11769 9.10625 -13.7565
ltibia 94.6194
lfoot -1.85566 -3.31546
ltoes -4.12035
39
root 2.56559 16.0977 5.33221 -1.21013 160.944 -344.704
lowerback 16.7066 -4.26125 8.93057
upperback 3.74639 -3.2928 2.70704
thorax -5.69343 -1.45527 -1.45543
lowerneck -4.77213 12.4827 3.8128
upperneck -5.7822 16.8039 -14.114
head 0.646061 8.61012 -4.74444
rclavicle -5.99336e-014 3.97569e-015
rhumerus -55.9753 0.230154 -81.6199
rradius 74.474
rwrist 0.472842
rhand -27.9577 30.9138
rfingers 7.12502
rthumb -1.34505 0.938288
lclavicle -5.99336e-014 3.97569e-015
lhumerus -63.351 -2.1847 93.4387
lradius 93.9535
lwrist 14.6297
lhand -17.2002 -11.4558
lfingers 7.12502
lthumb 9.04219 18.3304
rfemur -12.6106 -1.79232 29.6202
rtibia 48.5107
rfoot -27.6042 7.20528
rtoes -12.1224
lfemur -9.29906 9.51951 -13.2899
ltibia 96.5953
lfoot -2.03035 -3.74912
ltoes -1.11278
40
root 2.63134 16.0846 5.05515 -1.135 161.175 -344.78
lowerback 16.638 -4.01597 9.14402
upperback 3.66297 -2.95818 2.58767
thorax -5.73134 -1.30586 -1.77795
lowerneck -4.66494 12.4059 3.65118
upperneck -5.83911 16.7041 -14.009
head 0.573002 8.56945 -4.69975
rclavicle 5.61567e-014 -5.56597e-015
rhumerus -54.5921 -0.249402 -82.7381
rradius 76.638
rwrist 0.901364
rhand -28.114 31.3616
rfingers 7.12502
rthumb -1.49598 1.38711
lclavicle 5.61567e-014 -5.56597e-015
lhumerus -63.9516 -2.05125 93.3906
lradius 92.2626
lwrist 13.9841
lhand -17.8813 -11.4998
lfingers 7.12502
lthumb 8.38494 18.3138
rfemur -11.2208 -1.82806 29.365
rtibia 48.0043
rfoot -28.6342 7.44468
rtoes -12.112
lfemur -11.7277 9.80554 -13.0984
ltibia 98.2349
lfoot -2.23069 -3.94372
ltoes 0.835703
41
root 2.69508 16.0916 4.78002 -1.05496 161.419 -344.982
lowerback 16.5063 -3.69415 9.14549
upperback 3.53966 -2.57792 2.44455
thorax -5.76056 -1.13768 -2.01961
lowerneck -4.34115 12.3194 3.79571
upperneck -5.9168 16.5768 -14.0528
head 0.497611 8.51668 -4.77617
rclavicle 5.78463e-014 -5.56597e-015
rhumerus -53.3286 -0.550947 -84.0329
rradius 78.9564
rwrist 1.24235
rhand -28.1488 31.565
rfingers 7.12502
rthumb -1.52958 1.59069
lclavicle 5.78463e-014 -5.56597e-015
lhumerus -64.8201 -2.04521 93.4466
lradius 91.0671
lwrist 13.3936
lhand -18.2061 -11.6766
lfingers 7.12502
lthumb 8.07141 18.1493
rfemur -9.73277 -1.82246 29.0067
rtibia 47.1673
rfoot -29.4104 7.63242
rtoes -12.2324
lfemur -14.1956 9.96273 -13.2206
ltibia 99.5002
lfoot -2.57312 -3.89499
ltoes 1.91248
42
root 2.75697 16.1166 4.50206 -0.935611 161.658 -345.166
lowerback 16.2989 -3.3602 9.07795
upperback 3.40784 -2.20302 2.32032
thorax -5.75241 -0.971048 -2.2025
lowerneck -3.92661 12.2316 3.96232
upperneck -6.02012 16.4483 -14.1538
head 0.405389 8.46753 -4.88443
rclavicle -3.58806e-014 -3.97569e-015
rhumerus -52.1728 -0.446457 -85.4842
rradius 81.3178
rwrist 1.41732
rhand -28.1984 31.5645
rfingers 7.12502
rthumb -1.57753 1.59055
lclavicle -3.58806e-014 -3.97569e-015
lhumerus -65.9459 -2.01818 93.559
lradius 90.351
lwrist 12.9191
lhand -18.287 -11.9565
lfingers 7.12502
lthumb 7.99337 17.8724
rfemur -8.15819 -1.71512 28.6958
rtibia 46.0682
rfoot -29.9465 7.67371
rtoes -12.4097
lfemur -16.6778 10.0698 -13.4186
ltibia 100.433
lfoot -2.82449 -3.85725
ltoes 2.98025
43
root 2.81494 16.1521 4.22414 -0.824138 161.925 -345.39
lowerback 16.0779 -3.00405 8.91432
upperback 3.26851 -1.81849 2.188
thorax -5.73951 -0.799226 -2.34044
lowerneck -3.72895 12.148 4.02153
upperneck -5.90703 16.3412 -14.1183
head 0.399853 8.41251 -4.90001
rclavicle 4.28381e-014 1.19271e-014
rhumerus -51.2764 -0.0800446 -87.0367
rradius 83.6674
rwrist 1.62233
rhand -28.324 31.6027
rfingers 7.12502
rthumb -1.69884 1.62976
lclavicle 4.28381e-014 1.19271e-014
lhumerus -67.2922 -2.07413 93.7415
lradius 90.2657
lwrist 12.7216
lhand -17.81 -12.0966
lfingers 7.12502
lthumb 8.45374 17.7142
rfemur -6.51841 -1.47522 28.405
rtibia 44.799
rfoot -30.2581 7.48827
rtoes -12.5901
lfemur -19.1637 10.0653 -13.7912
ltibia 101.069
lfoot -3.08595 -3.67637
ltoes 3.80936
44
root 2.87265 16.1963 3.94285 -0.862116 162.144 -345.704
lowerback 15.949 -2.61493 8.61969
upperback 3.16488 -1.40266 2.02073
thorax -5.73214 -0.608025 -2.44518
lowerneck -3.65985 12.0533 4.002
upperneck -5.65627 16.2323 -14.0347
head 0.449727 8.34802 -4.86979
rclavicle 2.61402e-014 -1.43125e-014
rhumerus -50.4149 0.407335 -88.613
rradius 85.5561
rwrist 2.0334
rhand -28.6392 31.8333
rfingers 7.12502
rthumb -2.00322 1.86296
lclavicle 2.61402e-014 -1.43125e-014
lhumerus -68.6715 -2.35193 94.004
lradius 90.5389
lwrist 12.7939
lhand -17.1157 -12.3866
lfingers 7.12502
lthumb 9.12368 17.3961
rfemur -4.68199 -0.936784 28.1332
rtibia 43.4099
rfoot -30.3719 6.99276
rtoes -12.7192
lfemur -21.3753 10.0077 -14.3357
ltibia 101.326
lfoot -3.42884 -3.42794
ltoes 4.03564
45
root 2.92699 16.249 3.65721 -0.975699 162.319 -345.999
lowerback 15.8664 -2.20445 8.34791
upperback 3.09685 -0.946987 1.83453
thorax -5.70922 -0.393814 -2.58884
lowerneck -3.61357 11.9284 4.0419
upperneck -5.36792 16.0843 -13.9749
head 0.520123 8.26118 -4.85727
rclavicle 6.47044e-014 2.22639e-014
rhumerus -49.7761 1.14572 -90.1444
rradius 87.3386
rwrist 2.60668
rhand -29.1317 32.2981
rfingers 7.12502
rthumb -2.47889 2.33274
lclavicle 6.47044e-014 2.22639e-014
lhumerus -70.099 -2.94632 94.4
lradius 91.2247
lwrist 13.2102
lhand -16.2462 -12.5402
lfingers 7.12502
lthumb 9.96268 17.204
rfemur -2.7451 -0.225512 27.9706
rtibia 41.975
rfoot -30.3326 6.11148
rtoes -13.2968
lfemur -23.333 9.95688 -14.895
ltibia 101.22
lfoot -4.11559 -3.13682
ltoes 3.25773
46
root 2.97914 16.3151 3.36232 -1.11359 162.525 -346.388
lowerback 15.7353 -1.79204 7.94893
upperback 3.0232 -0.517137 1.63923
thorax -5.6679 -0.19047 -2.66342
lowerneck -3.61157 11.8252 4.18121
upperneck -5.07301 15.9446 -14.3549
head 0.611871 8.17425 -4.48885
rclavicle -2.0773e-014 -2.06736e-014
rhumerus -49.285 2.10337 -91.6243
rradius 88.9154
rwrist 3.32868
rhand -29.5851 32.9128
rfingers 7.12502
rthumb -2.91676 2.95296
lclavicle -2.0773e-014 -2.06736e-014
lhumerus -71.5952 -3.82673 94.9316
lradius 92.2782
lwrist 14.0188
lhand -15.3254 -12.6347
lfingers 7.12502
lthumb 10.8509 17.065
rfemur -0.826702 0.356638 27.72
rtibia 40.5481
rfoot -30.0649 5.12989
rtoes -14.1923
lfemur -25.0677 9.74638 -15.671
ltibia 100.676
lfoot -5.02496 -2.85263
ltoes 1.92818
